<svg id="_I_alert" data-name="(I) alert" xmlns="http://www.w3.org/2000/svg" width="54" height="54" viewBox="0 0 54 54">
  <defs>
    <style>
      .cls-1, .cls-2 {
        fill: none;
      }

      .cls-2 {
        stroke: #e1100a;
        stroke-width: 2px;
      }

      .cls-3, .cls-4 {
        stroke: none;
      }

      .cls-4 {
        fill: #e1100a;
      }
    </style>
  </defs>
  <g id="Pfad_1158" data-name="Pfad 1158" class="cls-1">
    <path class="cls-3" d="M27,0A27,27,0,1,1,0,27,27,27,0,0,1,27,0Z"/>
    <path class="cls-4" d="M 27 2 C 23.6241397857666 2 20.35031890869141 2.660720825195312 17.26948165893555 3.963798522949219 C 14.29273986816406 5.222858428955078 11.61893081665039 7.025730133056641 9.322330474853516 9.322330474853516 C 7.025730133056641 11.61893081665039 5.222858428955078 14.29273986816406 3.963798522949219 17.26948165893555 C 2.660720825195312 20.35031890869141 2 23.6241397857666 2 27 C 2 30.3758602142334 2.660720825195312 33.64968109130859 3.963798522949219 36.73052215576172 C 5.222858428955078 39.70726013183594 7.025730133056641 42.38106918334961 9.322330474853516 44.67766952514648 C 11.61893081665039 46.97426986694336 14.29273986816406 48.77714157104492 17.26948165893555 50.03620147705078 C 20.35031890869141 51.33927917480469 23.6241397857666 52 27 52 C 30.3758602142334 52 33.64968109130859 51.33927917480469 36.73052215576172 50.03620147705078 C 39.70726013183594 48.77714157104492 42.38106918334961 46.97426986694336 44.67766952514648 44.67766952514648 C 46.97426986694336 42.38106918334961 48.77714157104492 39.70726013183594 50.03620147705078 36.73052215576172 C 51.33927917480469 33.64968109130859 52 30.3758602142334 52 27 C 52 23.6241397857666 51.33927917480469 20.35031890869141 50.03620147705078 17.26948165893555 C 48.77714157104492 14.29273986816406 46.97426986694336 11.61893081665039 44.67766952514648 9.322330474853516 C 42.38106918334961 7.025730133056641 39.70726013183594 5.222858428955078 36.73052215576172 3.963798522949219 C 33.64968109130859 2.660720825195312 30.3758602142334 2 27 2 M 27 0 C 41.91168975830078 0 54 12.08831024169922 54 27 C 54 41.91168975830078 41.91168975830078 54 27 54 C 12.08831024169922 54 0 41.91168975830078 0 27 C 0 12.08831024169922 12.08831024169922 0 27 0 Z"/>
  </g>
  <line id="Linie_351" data-name="Linie 351" class="cls-2" y2="22" transform="translate(27.5 8.5)"/>
  <line id="Linie_352" data-name="Linie 352" class="cls-2" y2="5" transform="translate(27.5 35.5)"/>
</svg>
