<svg xmlns="http://www.w3.org/2000/svg" width="51.92" height="43.958" viewBox="0 0 51.92 43.958">
  <defs>
    <style>
      .cls-1 {
        fill: #00718f;
        stroke: rgba(0,0,0,0);
      }
    </style>
  </defs>
  <g id="_I_calendar" data-name="(I) calendar" transform="translate(0.5 0.5)">
    <path id="Icon_Calender" data-name="Icon Calender" class="cls-1" d="M4.393,42.955A4.4,4.4,0,0,1,0,38.564V7.513a4.371,4.371,0,0,1,3.674-4.33V1.508A1.513,1.513,0,0,1,5.187,0h1.25A1.513,1.513,0,0,1,7.948,1.508V3.121h23.74V1.508A1.513,1.513,0,0,1,33.2,0h1.25A1.513,1.513,0,0,1,35.96,1.508V3.154a4.4,4.4,0,0,1,3.875,4.36V21.168l1.57-1.57,5.627,5.627-7.2,7.2v6.143a4.4,4.4,0,0,1-4.391,4.391ZM1.149,38.564a3.248,3.248,0,0,0,3.245,3.244H35.445a3.248,3.248,0,0,0,3.244-3.244v-5l-2.65,2.65-5.627-5.627,8.276-8.276V14.243H1.149Zm0-31.051V13.1H38.691V7.513a3.246,3.246,0,0,0-2.729-3.2V5.882a1.514,1.514,0,0,1-1.511,1.511H33.2A1.514,1.514,0,0,1,31.69,5.882V4.269H7.949V5.882A1.514,1.514,0,0,1,6.438,7.394H5.188A1.513,1.513,0,0,1,3.677,5.882V4.352A3.228,3.228,0,0,0,1.149,7.513Zm31.687-6V5.882a.364.364,0,0,0,.364.364h1.25a.364.364,0,0,0,.364-.364V1.508a.364.364,0,0,0-.364-.364H33.2A.364.364,0,0,0,32.837,1.508Zm-28.013,0V5.882a.364.364,0,0,0,.364.364h1.25A.364.364,0,0,0,6.8,5.882V1.508a.364.364,0,0,0-.364-.364H5.188A.364.364,0,0,0,4.824,1.508Zm23,35.281,1.437-5.084L34.9,37.379,29.85,38.815a2.767,2.767,0,0,1-.744.112C28,38.926,27.457,38.074,27.824,36.789Zm-9.31-.625V34.411h2.609v1.754Zm-10.418,0V34.411H10.7v1.754Zm20.837-7.382V27.03h2.609v1.753Zm-10.418,0V27.03h2.609v1.753Zm-10.418,0V27.03H10.7v1.753Zm34.427-10.3,2.1-2.1a2.248,2.248,0,0,1,3.132,0l2.5,2.506a2.179,2.179,0,0,1,0,3.131l-2.1,2.1Zm-13.59,2.927V19.653h2.609v1.753Zm-10.418,0V19.653h2.609v1.753Zm-10.418,0V19.653H10.7v1.753Z" transform="translate(-0.002 0.003)"/>
  </g>
</svg>
