<svg id="_I_checked" data-name="(I) checked" xmlns="http://www.w3.org/2000/svg" width="55" height="53" viewBox="0 0 55 53">
  <path id="Path" d="M1.246,19.769,0,20.859,13.058,35,43,1.062,41.729,0l-28.7,32.53Z" transform="translate(12 1)" fill="#8ab304"/>
  <path id="Path-2" data-name="Path" d="M50.987,18.495A24.4,24.4,0,0,1,52.328,26.5,25.126,25.126,0,0,1,27,51.359,25.126,25.126,0,0,1,1.672,26.5,25.126,25.126,0,0,1,27,1.641,25.657,25.657,0,0,1,39.929,5.119l.855-1.41A27.357,27.357,0,0,0,27,0C12.112,0,0,11.888,0,26.5S12.112,53,27,53,54,41.112,54,26.5a26.03,26.03,0,0,0-1.43-8.533Z" fill="#8ab304"/>
</svg>
