<svg xmlns="http://www.w3.org/2000/svg" width="16.529" height="15.195" viewBox="0 0 16.529 15.195">
  <defs>
    <style>
      .cls-1 {
        fill: #00718f;
        stroke: rgba(0,0,0,0);
      }
    </style>
  </defs>
  <g id="_I_Bearbeiten" data-name="(I) Bearbeiten" transform="translate(0.508 0.502)">
    <path id="Vereinigungsmenge_10" data-name="Vereinigungsmenge 10" class="cls-1" d="M16919.563,22130.969a.646.646,0,0,1-.277-.205.7.7,0,0,1-.156-.689l1.123-3.437a.7.7,0,0,1,.193-.3.075.075,0,0,1,.027-.021l9.459-8.432a.892.892,0,0,1,.139-.172l.268-.232a2.571,2.571,0,0,1,3.422,3.838l-.268.238a.794.794,0,0,1-.145.1h-.006l-9.492,8.453v.006a.744.744,0,0,1-.344.178l-3.543.717a.644.644,0,0,1-.135.014A.708.708,0,0,1,16919.563,22130.969Zm1.967-3.721-.7,2.154,2.211-.449.584-.518-1.518-1.705Zm9.752-8.709-.266.232-.018.018a.952.952,0,0,1-.105.117l-7.742,6.9,1.521,1.7,7.738-6.9c.033-.023.066-.051.1-.072.01-.012.027-.023.039-.039l.266-.234a1.152,1.152,0,1,0-1.533-1.721Z" transform="translate(-16919.096 -22116.828)"/>
  </g>
</svg>
