<svg id="_I_info" data-name="(I) info" xmlns="http://www.w3.org/2000/svg" width="20" height="20" viewBox="0 0 20 20">
  <defs>
    <style>
      .cls-1, .cls-2 {
        fill: none;
      }

      .cls-2 {
        stroke: #00718f;
        stroke-width: 2px;
      }

      .cls-3, .cls-4 {
        stroke: none;
      }

      .cls-4 {
        fill: #00718f;
      }
    </style>
  </defs>
  <g id="Pfad_1158" data-name="Pfad 1158" class="cls-1" transform="translate(20 20) rotate(180)">
    <path class="cls-3" d="M10,0A10,10,0,1,1,0,10,10,10,0,0,1,10,0Z"/>
    <path class="cls-4" d="M 10 2 C 5.588789939880371 2 2 5.588789939880371 2 10 C 2 14.41121006011963 5.588789939880371 18 10 18 C 14.41121006011963 18 18 14.41121006011963 18 10 C 18 5.588789939880371 14.41121006011963 2 10 2 M 10 0 C 15.52285003662109 0 20 4.477149963378906 20 10 C 20 15.52285003662109 15.52285003662109 20 10 20 C 4.477149963378906 20 0 15.52285003662109 0 10 C 0 4.477149963378906 4.477149963378906 0 10 0 Z"/>
  </g>
  <line id="Linie_351" data-name="Linie 351" class="cls-2" y2="8.148" transform="translate(9.815 16.852) rotate(180)"/>
  <line id="Linie_352" data-name="Linie 352" class="cls-2" y2="1.852" transform="translate(9.815 6.852) rotate(180)"/>
</svg>
