<svg id="krankenbett" xmlns="http://www.w3.org/2000/svg" width="38.075" height="40.706" viewBox="0 0 38.075 40.706">
  <defs>
    <style>
      .cls-1 {
        fill: #00718f;
        fill-rule: evenodd;
      }
    </style>
  </defs>
  <path id="Pfad_1214" data-name="Pfad 1214" class="cls-1" d="M10.8,952.36A5.786,5.786,0,0,0,5,958.1v8.785a6.216,6.216,0,0,0-5,5.775v19.937a.494.494,0,0,0,.473.473H8.548a.494.494,0,0,0,.473-.473v-4.156H28.059v4.156a.494.494,0,0,0,.473.473H37.6a.494.494,0,0,0,.473-.473V972.656c0-2.883-2.338-5.263-5.4-5.86v-8.7a5.789,5.789,0,0,0-5.8-5.737Zm0,.947H26.876a4.833,4.833,0,0,1,4.852,4.79v8.577c-.18-.014-.364-.028-.549-.028H28.22a9.373,9.373,0,0,0-9.187-8.8,9.373,9.373,0,0,0-9.187,8.8H6.887a8.915,8.915,0,0,0-.947.057v-8.61A4.837,4.837,0,0,1,10.8,953.307Zm8.241,5.533a8.388,8.388,0,0,1,8.241,7.81H10.8A8.377,8.377,0,0,1,19.037,958.84ZM6.892,967.6H31.178c3.313,0,5.945,2.319,5.945,5.06v7.867H.947v-7.867C.947,969.916,3.578,967.6,6.892,967.6ZM.947,981.47H37.128v10.65H29.006v-4.156a.494.494,0,0,0-.473-.473H8.548a.494.494,0,0,0-.473.473v4.156H.947Z" transform="translate(0 -952.36)"/>
</svg>
